<?xml version="1.0" standalone="no"?>
<!DOCTYPE svg PUBLIC "-//W3C//DTD SVG 20010904//EN"
 "http://www.w3.org/TR/2001/REC-SVG-20010904/DTD/svg10.dtd">
<svg version="1.0" xmlns="http://www.w3.org/2000/svg"
 width="512.000000pt" height="512.000000pt" viewBox="0 0 512.000000 512.000000"
 preserveAspectRatio="xMidYMid meet">
<metadata>
Created by potrace 1.16, written by Peter Selinger 2001-2019
</metadata>
<g transform="translate(0.000000,512.000000) scale(0.100000,-0.100000)"
fill="#000000" stroke="none">
<path d="M1612 3723 c-17 -27 -80 -120 -141 -208 -60 -88 -153 -223 -205 -300
-52 -77 -123 -180 -157 -230 -34 -49 -109 -160 -167 -245 -58 -85 -129 -189
-157 -230 -29 -41 -91 -133 -140 -205 -49 -71 -127 -186 -173 -255 -47 -69
-113 -165 -147 -215 -34 -49 -97 -142 -140 -205 -43 -63 -102 -150 -132 -192
l-53 -78 518 0 518 0 148 217 c143 211 238 351 417 613 47 69 120 176 162 238
43 61 111 163 154 225 167 245 247 363 262 384 15 21 23 22 169 23 l152 0 0
-425 0 -425 503 0 503 0 25 -37 c22 -34 127 -187 298 -438 34 -49 105 -154
158 -232 l96 -143 519 0 518 0 -53 78 c-30 42 -89 129 -132 192 -43 63 -106
156 -140 205 -34 50 -101 147 -148 218 -48 70 -126 184 -174 255 -47 70 -109
161 -138 202 -55 80 -227 333 -317 465 l-54 80 -732 3 -732 2 0 355 0 355
-429 0 -429 0 -30 -47z"/>
</g>
</svg>
